<?xml version="1.0" encoding="UTF-8"?>
<svg id="Layer_2" data-name="Layer 2" xmlns="http://www.w3.org/2000/svg" viewBox="0 0 524.05 70.46">
  <defs>
    <style>
      .cls-1 {
        fill: #fff;
      }
    </style>
  </defs>
  <g id="Layer_1-2" data-name="Layer 1">
    <g>
      <rect class="cls-1" x="332.72" y="60.59" width="16.3" height="1.99"/>
      <rect class="cls-1" x="299.42" y="60.59" width="16.3" height="1.99"/>
      <rect class="cls-1" x="393.72" y="60.59" width="16.3" height="1.99"/>
      <path class="cls-1" d="M290.1,60.59h-19.31c-1.26.59-2.67.92-4.27.92s-3.01-.33-4.25-.92h-19.17c.41.69.85,1.35,1.33,1.99h44.36c.47-.64.9-1.31,1.31-1.99Z"/>
      <rect class="cls-1" x="449.22" y="60.59" width="16.3" height="1.99"/>
      <rect class="cls-1" x="449.22" y="64.76" width="16.3" height="1.76"/>
      <rect class="cls-1" x="393.72" y="64.76" width="16.3" height="1.76"/>
      <rect class="cls-1" x="424.82" y="64.76" width="16.5" height="1.76"/>
      <rect class="cls-1" x="217.42" y="48.07" width="16.3" height="2.7"/>
      <path class="cls-1" d="M120.13,54.7v-2.46h-16.69c-.22.89-.53,1.72-.92,2.46h17.6Z"/>
      <path class="cls-1" d="M125.99,50.77h16.51c-.14-.85-.24-1.76-.3-2.7h-16.5c.06.92.15,1.82.29,2.7Z"/>
      <rect class="cls-1" x="217.42" y="60.59" width="16.3" height="1.99"/>
      <rect class="cls-1" x="424.82" y="60.59" width="16.5" height="1.99"/>
      <path class="cls-1" d="M211.52,60.59h-25.04c.08.7.2,1.37.34,1.99h24.7v-1.99Z"/>
      <path class="cls-1" d="M173.98,62.58c.4-.64.77-1.31,1.1-1.99h-19.79c-.82.21-1.7.32-2.66.32s-1.82-.11-2.63-.32h-20.57c.41.69.84,1.35,1.3,1.99h43.26Z"/>
      <path class="cls-1" d="M144.48,56.41h-17.04c.28.76.6,1.51.95,2.23h17.91c-.69-.62-1.3-1.37-1.82-2.23Z"/>
      <rect class="cls-1" x="186.32" y="48.07" width="15.9" height="2.7"/>
      <path class="cls-1" d="M125.7,43.89c-.04.7-.07,1.4-.07,2.11,0,.28.01.55.02.82h16.5c0-.28-.02-.54-.02-.82,0-.73.03-1.42.07-2.11h-16.5Z"/>
      <rect class="cls-1" x="217.42" y="43.89" width="16.3" height="2.93"/>
      <rect class="cls-1" x="103.83" y="43.89" width="16.3" height="2.93"/>
      <path class="cls-1" d="M239.3,43.89c-.05.7-.08,1.4-.08,2.11,0,.28.01.55.02.82h16.5c0-.28-.02-.54-.02-.82,0-.72.03-1.42.08-2.11h-16.5Z"/>
      <rect class="cls-1" x="70.92" y="43.89" width="16.2" height="2.93"/>
      <path class="cls-1" d="M277.42,46c0,.28-.01.55-.02.82h16.5c0-.27.02-.55.02-.82,0-.71-.03-1.41-.08-2.11h-16.5c.05.69.08,1.38.08,2.11Z"/>
      <path class="cls-1" d="M91.46,58.64c-1.2-.46-2.15-1.21-2.85-2.23h-17.57c.07.76.17,1.51.29,2.23h20.13Z"/>
      <path class="cls-1" d="M87.13,50.77c0-.09,0-.17,0-.26v-2.44h-16.2v2.7h16.21Z"/>
      <rect class="cls-1" x="393.72" y="43.89" width="16.3" height="2.93"/>
      <rect class="cls-1" x="424.82" y="48.07" width="16.5" height="2.7"/>
      <rect class="cls-1" x="424.82" y="52.24" width="16.5" height="2.46"/>
      <rect class="cls-1" x="424.82" y="43.89" width="16.5" height="2.93"/>
      <rect class="cls-1" x="332.72" y="43.89" width="16.3" height="2.93"/>
      <rect class="cls-1" x="299.42" y="43.89" width="16.3" height="2.93"/>
      <rect class="cls-1" x="355.72" y="43.89" width="27.2" height="2.93"/>
      <rect class="cls-1" x="424.82" y="56.41" width="16.5" height="2.23"/>
      <rect class="cls-1" x="393.72" y="56.41" width="16.3" height="2.23"/>
      <rect class="cls-1" x="355.72" y="52.24" width="27.2" height="1.16"/>
      <path class="cls-1" d="M177.12,52.24h-15.61c-.11.89-.29,1.71-.52,2.46h15.88c.12-.81.21-1.63.25-2.46Z"/>
      <path class="cls-1" d="M126.87,54.7h16.73c-.32-.76-.58-1.58-.8-2.46h-16.55c.17.84.38,1.66.62,2.46Z"/>
      <path class="cls-1" d="M120.13,50.77v-2.7h-16.3v.84c0,.65-.05,1.26-.12,1.86h16.42Z"/>
      <path class="cls-1" d="M275.96,54.7h16.72c.24-.8.45-1.63.62-2.46h-16.55c-.21.88-.48,1.7-.79,2.46Z"/>
      <path class="cls-1" d="M239.59,50.77h16.5c-.14-.86-.24-1.76-.3-2.7h-16.5c.06.92.16,1.82.3,2.7Z"/>
      <rect class="cls-1" x="299.42" y="52.24" width="16.3" height="2.46"/>
      <rect class="cls-1" x="332.72" y="52.24" width="16.3" height="2.46"/>
      <path class="cls-1" d="M120.13,66.52v-1.76h-46.72c.34.62.71,1.2,1.12,1.76h28.66c.35-.42.7-.86,1.04-1.32h.3v1.32h15.6Z"/>
      <rect class="cls-1" x="332.72" y="68.93" width="16.3" height="1.53"/>
      <path class="cls-1" d="M87.22,52.24h-16.3v1.66c0,.27.02.53.03.8h16.81c-.26-.74-.44-1.56-.54-2.46Z"/>
      <polygon class="cls-1" points="510.76 38.95 522.52 20.3 505.42 20.3 498.22 33.5 498.02 33.5 490.42 20.3 471.82 20.3 484.17 38.95 510.76 38.95"/>
      <path class="cls-1" d="M211.52,64.76h-24.02c.27.64.59,1.22.94,1.76h23.08v-1.76Z"/>
      <path class="cls-1" d="M240.5,54.7h16.67c-.3-.77-.56-1.59-.77-2.46h-16.53c.18.84.39,1.66.63,2.46Z"/>
      <polygon class="cls-1" points="49.89 68.93 50.39 70.46 68.95 70.46 68.4 68.93 49.89 68.93"/>
      <path class="cls-1" d="M76.72,68.93c.65.57,1.37,1.07,2.12,1.53h19.91c.72-.45,1.4-.96,2.06-1.53h-24.09Z"/>
      <path class="cls-1" d="M120.13,58.64v-2.23h-18.77c-.88,1-1.98,1.76-3.27,2.23h22.04Z"/>
      <rect class="cls-1" x="393.72" y="48.07" width="16.3" height="2.7"/>
      <rect class="cls-1" x="355.72" y="48.07" width="27.2" height="2.7"/>
      <rect class="cls-1" x="332.72" y="56.41" width="16.3" height="2.23"/>
      <path class="cls-1" d="M120.13,62.58v-1.99h-48.36c.19.69.4,1.35.65,1.99h47.71Z"/>
      <rect class="cls-1" x="393.72" y="52.24" width="16.3" height="2.46"/>
      <rect class="cls-1" x="217.42" y="52.24" width="16.3" height="2.46"/>
      <rect class="cls-1" x="332.72" y="48.07" width="16.3" height="2.7"/>
      <rect class="cls-1" x="299.42" y="48.07" width="16.3" height="2.7"/>
      <path class="cls-1" d="M277.04,50.77h16.52c.14-.88.23-1.78.29-2.7h-16.5c-.06.94-.16,1.84-.31,2.7Z"/>
      <path class="cls-1" d="M202.44,56.41h-16.12v1.59c0,.22.02.42.03.64h17.62c-.73-.48-1.26-1.19-1.53-2.23Z"/>
      <path class="cls-1" d="M175.89,58.64c.26-.73.49-1.47.67-2.23h-16.23c-.43.86-.95,1.61-1.56,2.23h17.13Z"/>
      <path class="cls-1" d="M186.32,52.24v2.46h15.91c0-.07,0-.13,0-.2v-2.26h-15.9Z"/>
      <path class="cls-1" d="M257.97,56.41h-16.89c.29.76.61,1.51.97,2.23h17.55c-.61-.65-1.16-1.39-1.63-2.23Z"/>
      <rect class="cls-1" x="217.42" y="56.41" width="16.3" height="2.23"/>
      <path class="cls-1" d="M292.1,56.41h-16.96c-.48.84-1.03,1.58-1.65,2.23h17.66c.35-.72.67-1.47.96-2.23Z"/>
      <rect class="cls-1" x="299.42" y="56.41" width="16.3" height="2.23"/>
      <rect class="cls-1" x="186.32" y="43.89" width="15.9" height="2.93"/>
      <path class="cls-1" d="M281.97,68.93h-30.68c.89.56,1.82,1.07,2.8,1.53h25.09c.97-.45,1.9-.97,2.79-1.53Z"/>
      <rect class="cls-1" x="299.42" y="68.93" width="16.3" height="1.53"/>
      <rect class="cls-1" x="217.42" y="68.93" width="16.3" height="1.53"/>
      <polygon class="cls-1" points="504.41 68.93 505.25 70.46 524.05 70.46 523.07 68.93 504.41 68.93"/>
      <polygon class="cls-1" points="499.83 60.59 500.92 62.58 518.99 62.58 517.71 60.59 499.83 60.59"/>
      <polygon class="cls-1" points="497.53 56.41 498.76 58.64 516.46 58.64 515.03 56.41 497.53 56.41"/>
      <polygon class="cls-1" points="502.12 64.76 503.08 66.52 521.52 66.52 520.39 64.76 502.12 64.76"/>
      <path class="cls-1" d="M211.52,68.93h-20.9c.75.6,1.58,1.11,2.5,1.53h18.41v-1.53Z"/>
      <polygon class="cls-1" points="63.27 54.7 62.38 52.24 6.55 52.24 5.66 54.7 63.27 54.7"/>
      <polygon class="cls-1" points="20.26 62.58 20.89 60.59 3.55 60.59 2.83 62.58 20.26 62.58"/>
      <path class="cls-1" d="M167.75,68.93h-30.25c.89.56,1.81,1.07,2.78,1.53h24.81c.94-.45,1.82-.97,2.66-1.53Z"/>
      <polygon class="cls-1" points="482.86 52.24 481.23 54.7 513.93 54.7 512.35 52.24 482.86 52.24"/>
      <polygon class="cls-1" points="21.51 58.64 21.53 58.6 46.53 58.6 46.54 58.64 64.69 58.64 63.88 56.41 5.05 56.41 4.25 58.64 21.51 58.64"/>
      <rect class="cls-1" x="104.53" y="68.93" width="15.6" height="1.53"/>
      <polygon class="cls-1" points="17.76 70.46 18.24 68.93 .55 68.93 0 70.46 17.76 70.46"/>
      <polygon class="cls-1" points="19.01 66.52 19.57 64.76 2.05 64.76 1.42 66.52 19.01 66.52"/>
      <path class="cls-1" d="M316.34,38.95c1.25-3.98,4.3-6.55,8.38-6.55,4.41,0,7.02,2.57,7.77,6.55h16.53v-.75c0-11.4-6.6-19.4-17.8-19.4-7.1,0-12,3-15.8,8.5h-.3v-7h-15.7v18.65h16.92Z"/>
      <rect class="cls-1" x="217.42" y="20.3" width="16.3" height="18.65"/>
      <path class="cls-1" d="M142.99,38.95c1.43-5.08,4.63-8.05,9.63-8.05,4.6,0,7.4,3,8.4,7.6h15.7c-1.5-11.5-10.4-19.6-24.3-19.6s-23.28,8.27-26.01,20.05h16.58Z"/>
      <polygon class="cls-1" points="186.32 38.95 202.22 38.95 202.22 30.5 211.52 30.5 211.52 20.3 202.22 20.3 202.22 4.1 186.32 4.1 186.32 20.3 179.52 20.3 179.52 30.5 186.32 30.5 186.32 38.95"/>
      <path class="cls-1" d="M256.61,38.95c1.48-5.28,4.81-8.55,9.92-8.55s8.49,3.27,10,8.55h16.6c-2.79-11.78-12.63-20.05-26.5-20.05s-23.75,8.27-26.58,20.05h16.56Z"/>
      <rect class="cls-1" x="217.42" width="16.3" height="13.2"/>
      <polygon class="cls-1" points="485.63 48.07 483.84 50.77 511.41 50.77 509.67 48.07 485.63 48.07"/>
      <rect class="cls-1" x="103.83" y="20.3" width="16.3" height="18.65"/>
      <rect class="cls-1" x="70.92" y="20.3" width="16.2" height="18.65"/>
      <path class="cls-1" d="M27.83,38.95l3.29-10.35c1.2-3.7,2.9-10.1,2.9-10.1h.2s1.6,6.4,2.8,10.1l3.23,10.35h17.33L43.53,0h-18.2l-14,38.95h16.51Z"/>
      <polygon class="cls-1" points="484.68 39.72 486.78 42.89 508.27 42.89 510.27 39.72 484.68 39.72"/>
      <rect class="cls-1" x="449.22" width="16.3" height="13.2"/>
      <polygon class="cls-1" points="507.64 43.89 487.45 43.89 487.92 44.6 486.45 46.83 508.88 46.83 507.32 44.4 507.64 43.89"/>
      <rect class="cls-1" x="449.22" y="20.3" width="16.3" height="18.65"/>
      <path class="cls-1" d="M393.72,38.95h16.3v-8.25h9.6v-10.4h-9.6v-2.5c0-5.7,3.4-6.2,9.6-6V.3c-9.8-1-18.9.5-22.9,6.1-2,2.5-3,5.8-3,10.2v3.7h-6.6v10.4h6.6v8.25Z"/>
      <rect class="cls-1" x="424.82" width="16.5" height="38.95"/>
      <polygon class="cls-1" points="61.84 50.77 60.87 48.07 8.05 48.07 7.08 50.77 61.84 50.77"/>
      <rect class="cls-1" x="299.42" y="64.76" width="16.3" height="1.76"/>
      <polygon class="cls-1" points="477.34 60.59 476.02 62.58 493.34 62.58 494.56 60.59 477.34 60.59"/>
      <polygon class="cls-1" points="474.58 64.76 473.42 66.52 490.95 66.52 492.02 64.76 474.58 64.76"/>
      <polygon class="cls-1" points="471.82 68.93 470.81 70.46 488.56 70.46 489.48 68.93 471.82 68.93"/>
      <rect class="cls-1" x="449.22" y="68.93" width="16.3" height="1.53"/>
      <rect class="cls-1" x="449.22" y="52.24" width="16.3" height="2.46"/>
      <rect class="cls-1" x="424.82" y="68.93" width="16.5" height="1.53"/>
      <rect class="cls-1" x="449.22" y="56.41" width="16.3" height="2.23"/>
      <polygon class="cls-1" points="480.1 56.41 478.63 58.64 495.74 58.64 497.09 56.41 480.1 56.41"/>
      <polygon class="cls-1" points="67.53 66.52 66.89 64.76 48.53 64.76 49.1 66.52 67.53 66.52"/>
      <path class="cls-1" d="M172.41,64.76h-39.9c.56.62,1.16,1.2,1.79,1.76h36.48c.58-.56,1.12-1.15,1.63-1.76Z"/>
      <rect class="cls-1" x="449.22" y="48.07" width="16.3" height="2.7"/>
      <rect class="cls-1" x="393.72" y="68.93" width="16.3" height="1.53"/>
      <rect class="cls-1" x="217.42" y="64.76" width="16.3" height="1.76"/>
      <rect class="cls-1" x="332.72" y="64.76" width="16.3" height="1.76"/>
      <polygon class="cls-1" points="47.82 62.58 66.11 62.58 65.39 60.59 47.17 60.59 47.82 62.58"/>
      <path class="cls-1" d="M286.99,64.76h-40.76c.57.62,1.18,1.2,1.81,1.76h37.15c.63-.56,1.23-1.14,1.8-1.76Z"/>
      <polygon class="cls-1" points="9.91 42.89 26.58 42.89 27.59 39.72 11.05 39.72 9.91 42.89"/>
      <rect class="cls-1" x="103.83" y="39.72" width="16.3" height="3.17"/>
      <rect class="cls-1" x="186.32" y="39.72" width="15.9" height="3.17"/>
      <path class="cls-1" d="M125.78,42.89h16.5c.11-1.12.27-2.18.51-3.17h-16.53c-.21,1.03-.37,2.09-.48,3.17Z"/>
      <rect class="cls-1" x="217.42" y="39.72" width="16.3" height="3.17"/>
      <path class="cls-1" d="M239.38,42.89h16.5c.11-1.12.28-2.17.52-3.17h-16.52c-.22,1.03-.38,2.09-.49,3.17Z"/>
      <rect class="cls-1" x="449.22" y="43.89" width="16.3" height="2.93"/>
      <polygon class="cls-1" points="41.49 42.89 59 42.89 57.86 39.72 40.5 39.72 41.49 42.89"/>
      <rect class="cls-1" x="70.92" y="39.72" width="16.2" height="3.17"/>
      <polygon class="cls-1" points="60.42 46.83 59.37 43.89 41.8 43.89 42.43 45.9 25.62 45.9 26.26 43.89 9.55 43.89 8.49 46.83 60.42 46.83"/>
      <rect class="cls-1" x="393.72" y="39.72" width="16.3" height="3.17"/>
      <rect class="cls-1" x="424.82" y="39.72" width="16.5" height="3.17"/>
      <path class="cls-1" d="M277.27,42.89h16.5c-.11-1.08-.27-2.14-.48-3.17h-16.55c.24.99.42,2.05.53,3.17Z"/>
      <rect class="cls-1" x="449.22" y="39.72" width="16.3" height="3.17"/>
      <rect class="cls-1" x="355.72" y="39.72" width="27.2" height="3.17"/>
      <path class="cls-1" d="M299.42,42.89h16.31c.02-1.12.16-2.18.4-3.17h-16.71v3.17Z"/>
      <path class="cls-1" d="M332.72,41.5v1.39h16.3v-3.17h-16.41c.07.57.11,1.16.11,1.78Z"/>
    </g>
  </g>
</svg>